<svg xmlns="http://www.w3.org/2000/svg" xmlns:xlink="http://www.w3.org/1999/xlink" width="798" height="502.2"><rect width="798" height="502.2" rx="5" ry="5" class="a"/><svg y="0%" x="0%"><circle cx="20" cy="20" r="6" fill="#ff5f58"/><circle cx="40" cy="20" r="6" fill="#ffbd2e"/><circle cx="60" cy="20" r="6" fill="#18c132"/></svg><svg height="434.2" viewBox="0 0 75 43.42" width="750" x="19" xmlns="http://www.w3.org/2000/svg" xmlns:xlink="http://www.w3.org/1999/xlink" y="54"><style>@keyframes i{0%{transform:translateX(-225px)}3.97%{transform:translateX(-450px)}5.61%{transform:translateX(-750px)}7.38%{transform:translateX(-825px)}7.72%{transform:translateX(-900px)}7.73%{transform:translateX(-1050px)}9.79%{transform:translateX(-1125px)}10.09%{transform:translateX(-1200px)}10.26%{transform:translateX(-1275px)}10.47%{transform:translateX(-1350px)}10.65%{transform:translateX(-1425px)}10.88%{transform:translateX(-1500px)}11.69%{transform:translateX(-1575px)}12.07%{transform:translateX(-1650px)}12.3%{transform:translateX(-1725px)}12.52%{transform:translateX(-1800px)}13.49%{transform:translateX(-1950px)}15.03%{transform:translateX(-2025px)}15.26%{transform:translateX(-2100px)}15.68%{transform:translateX(-2175px)}15.78%{transform:translateX(-2250px)}16.4%{transform:translateX(-2325px)}16.55%{transform:translateX(-2400px)}17.57%{transform:translateX(-2550px)}23.33%{transform:translateX(-2700px)}26.13%{transform:translateX(-2775px)}26.26%{transform:translateX(-2850px)}28.09%{transform:translateX(-3150px)}32.38%{transform:translateX(-3225px)}32.85%{transform:translateX(-3450px)}35.77%{transform:translateX(-3525px)}35.91%{transform:translateX(-3600px)}36.16%{transform:translateX(-3675px)}36.41%{transform:translateX(-3750px)}36.52%{transform:translateX(-3825px)}36.76%{transform:translateX(-3900px)}37.58%{transform:translateX(-3975px)}37.89%{transform:translateX(-4050px)}38.15%{transform:translateX(-4125px)}38.36%{transform:translateX(-4200px)}39.49%{transform:translateX(-4350px)}41.53%{transform:translateX(-4425px)}41.7%{transform:translateX(-4500px)}42.2%{transform:translateX(-4575px)}42.37%{transform:translateX(-4650px)}42.92%{transform:translateX(-4725px)}43.07%{transform:translateX(-4800px)}43.73%{transform:translateX(-4875px)}43.77%{transform:translateX(-4950px)}46.62%{transform:translateX(-5025px)}46.63%{transform:translateX(-5250px)}49.19%{transform:translateX(-5325px)}50.48%{transform:translateX(-5400px)}50.49%{transform:translateX(-5550px)}52.85%{transform:translateX(-5625px)}53.03%{transform:translateX(-5700px)}53.26%{transform:translateX(-5775px)}53.5%{transform:translateX(-5850px)}53.67%{transform:translateX(-5925px)}53.94%{transform:translateX(-6000px)}55.34%{transform:translateX(-6075px)}55.65%{transform:translateX(-6150px)}55.87%{transform:translateX(-6225px)}56.01%{transform:translateX(-6300px)}56.51%{transform:translateX(-6450px)}58.12%{transform:translateX(-6525px)}58.37%{transform:translateX(-6600px)}58.85%{transform:translateX(-6675px)}59.01%{transform:translateX(-6750px)}59.56%{transform:translateX(-6825px)}59.67%{transform:translateX(-6900px)}60.56%{transform:translateX(-7050px)}66.65%{transform:translateX(-7200px)}69.74%{transform:translateX(-7275px)}69.78%{transform:translateX(-7350px)}71.52%{transform:translateX(-7425px)}71.53%{transform:translateX(-7650px)}73.91%{transform:translateX(-7725px)}74.09%{transform:translateX(-7950px)}76.18%{transform:translateX(-8025px)}76.31%{transform:translateX(-8100px)}76.55%{transform:translateX(-8175px)}76.7%{transform:translateX(-8250px)}76.86%{transform:translateX(-8325px)}77.06%{transform:translateX(-8400px)}77.81%{transform:translateX(-8475px)}78.15%{transform:translateX(-8550px)}78.34%{transform:translateX(-8625px)}78.5%{transform:translateX(-8700px)}79.05%{transform:translateX(-8850px)}80.54%{transform:translateX(-8925px)}80.81%{transform:translateX(-9000px)}81.39%{transform:translateX(-9075px)}81.63%{transform:translateX(-9150px)}82.25%{transform:translateX(-9225px)}82.36%{transform:translateX(-9300px)}82.94%{transform:translateX(-9375px)}82.98%{transform:translateX(-9450px)}85.07%{transform:translateX(-9525px)}85.08%{transform:translateX(-9750px)}87.49%{transform:translateX(-9825px)}87.62%{transform:translateX(-9900px)}87.63%{transform:translateX(-10050px)}89.28%{transform:translateX(-10125px)}89.63%{transform:translateX(-10200px)}89.82%{transform:translateX(-10275px)}90.15%{transform:translateX(-10350px)}90.32%{transform:translateX(-10425px)}90.54%{transform:translateX(-10500px)}91.67%{transform:translateX(-10575px)}91.98%{transform:translateX(-10650px)}92.22%{transform:translateX(-10725px)}92.32%{transform:translateX(-10800px)}93.11%{transform:translateX(-10950px)}94.51%{transform:translateX(-11025px)}94.81%{transform:translateX(-11100px)}95.36%{transform:translateX(-11175px)}95.5%{transform:translateX(-11250px)}96.13%{transform:translateX(-11325px)}96.2%{transform:translateX(-11400px)}97.1%{transform:translateX(-11550px)}99.99%{transform:translateX(-11625px)}to{transform:translateX(-11850px)}}.a{fill:#282d35}.f{fill:#b9c0cb;white-space:pre}</style><g font-family="Monaco,Consolas,Menlo,'Bitstream Vera Sans Mono','Powerline Symbols',monospace" font-size="1.67"><defs><symbol id="1"><text y="1.67" class="f">Password</text><text x="9.018" y="1.67" class="f">Manager</text></symbol><symbol id="2"><text y="1.67" class="f">Welcome</text><text x="8.016" y="1.67" class="f">back!</text></symbol><symbol id="3"><text y="1.67" class="f">Enter</text><text x="6.012" y="1.67" class="f">master</text><text x="13.026" y="1.67" class="f">password:</text></symbol><symbol id="4"><text y="1.67" class="f">Logged</text><text x="7.014" y="1.67" class="f">in!</text></symbol><symbol id="5"><text y="1.67" class="f">Press</text><text x="6.012" y="1.67" class="f">enter</text><text x="12.024" y="1.67" class="f">to</text><text x="15.03" y="1.67" class="f">continue...</text></symbol><symbol id="6"><text y="1.67" class="f">No</text><text x="3.006" y="1.67" class="f">passwords</text></symbol><symbol id="7"><text y="1.67" class="f">Commands:</text></symbol><symbol id="8"><text x="4.008" y="1.67" class="f">a)</text><text x="7.014" y="1.67" class="f">Add</text><text x="11.022" y="1.67" class="f">password</text></symbol><symbol id="9"><text x="4.008" y="1.67" class="f">s)</text><text x="7.014" y="1.67" class="f">Show</text><text x="12.024" y="1.67" class="f">password</text></symbol><symbol id="10"><text x="4.008" y="1.67" class="f">e)</text><text x="7.014" y="1.67" class="f">Edit</text><text x="12.024" y="1.67" class="f">password</text></symbol><symbol id="11"><text x="4.008" y="1.67" class="f">r)</text><text x="7.014" y="1.67" class="f">Remove</text><text x="14.028" y="1.67" class="f">Password</text></symbol><symbol id="12"><text x="4.008" y="1.67" class="f">q)</text><text x="7.014" y="1.67" class="f">Quit</text></symbol><symbol id="13"><text y="1.67" class="f">Enter</text><text x="6.012" y="1.67" class="f">command:</text></symbol><symbol id="14"><text y="1.67" class="f">Enter</text><text x="6.012" y="1.67" class="f">command:</text><text x="15.03" y="1.67" class="f">a</text></symbol><symbol id="15"><text y="1.67" class="f">Add</text><text x="4.008" y="1.67" class="f">a</text><text x="6.012" y="1.67" class="f">new</text><text x="10.02" y="1.67" class="f">password:</text></symbol><symbol id="16"><text y="1.67" class="f">Domain:</text></symbol><symbol id="17"><text y="1.67" class="f">Domain:</text><text x="8.016" y="1.67" class="f">g</text></symbol><symbol id="18"><text y="1.67" class="f">Domain:</text><text x="8.016" y="1.67" class="f">gi</text></symbol><symbol id="19"><text y="1.67" class="f">Domain:</text><text x="8.016" y="1.67" class="f">git</text></symbol><symbol id="20"><text y="1.67" class="f">Domain:</text><text x="8.016" y="1.67" class="f">gith</text></symbol><symbol id="21"><text y="1.67" class="f">Domain:</text><text x="8.016" y="1.67" class="f">githu</text></symbol><symbol id="22"><text y="1.67" class="f">Domain:</text><text x="8.016" y="1.67" class="f">github</text></symbol><symbol id="23"><text y="1.67" class="f">Domain:</text><text x="8.016" y="1.67" class="f">github.</text></symbol><symbol id="24"><text y="1.67" class="f">Domain:</text><text x="8.016" y="1.67" class="f">github.c</text></symbol><symbol id="25"><text y="1.67" class="f">Domain:</text><text x="8.016" y="1.67" class="f">github.co</text></symbol><symbol id="26"><text y="1.67" class="f">Domain:</text><text x="8.016" y="1.67" class="f">github.com</text></symbol><symbol id="27"><text y="1.67" class="f">User:</text></symbol><symbol id="28"><text y="1.67" class="f">User:</text><text x="6.012" y="1.67" class="f">d</text></symbol><symbol id="29"><text y="1.67" class="f">User:</text><text x="6.012" y="1.67" class="f">di</text></symbol><symbol id="30"><text y="1.67" class="f">User:</text><text x="6.012" y="1.67" class="f">div</text></symbol><symbol id="31"><text y="1.67" class="f">User:</text><text x="6.012" y="1.67" class="f">divy</text></symbol><symbol id="32"><text y="1.67" class="f">User:</text><text x="6.012" y="1.67" class="f">divyk</text></symbol><symbol id="33"><text y="1.67" class="f">User:</text><text x="6.012" y="1.67" class="f">divykj</text></symbol><symbol id="34"><text y="1.67" class="f">Password:</text></symbol><symbol id="35"><text y="1.67" class="f">Retype</text><text x="7.014" y="1.67" class="f">Password:</text></symbol><symbol id="36"><text y="1.67" class="f">Added</text><text x="6.012" y="1.67" class="f">password!</text></symbol><symbol id="37"><text y="1.67" class="f">github.com</text><text x="16.032" y="1.67" class="f">divykj</text></symbol><symbol id="38"><text y="1.67" class="f">Enter</text><text x="6.012" y="1.67" class="f">command:</text><text x="15.03" y="1.67" class="f">s</text></symbol><symbol id="39"><text y="1.67" class="f">Show</text><text x="5.01" y="1.67" class="f">password:</text></symbol><symbol id="40"><text y="1.67" class="f">Password:</text><text x="10.02" y="1.67" class="f">1234</text></symbol><symbol id="41"><text y="1.67" class="f">Enter</text><text x="6.012" y="1.67" class="f">command:</text><text x="15.03" y="1.67" class="f">e</text></symbol><symbol id="42"><text y="1.67" class="f">Edit</text><text x="5.01" y="1.67" class="f">a</text><text x="7.014" y="1.67" class="f">password:</text></symbol><symbol id="43"><text y="1.67" class="f">New</text><text x="4.008" y="1.67" class="f">Password:</text></symbol><symbol id="44"><text y="1.67" class="f">Retype</text><text x="7.014" y="1.67" class="f">New</text><text x="11.022" y="1.67" class="f">Password:</text></symbol><symbol id="45"><text y="1.67" class="f">Updated</text><text x="8.016" y="1.67" class="f">password!</text></symbol><symbol id="46"><text y="1.67" class="f">Password:</text><text x="10.02" y="1.67" class="f">5678</text></symbol><symbol id="47"><text y="1.67" class="f">Enter</text><text x="6.012" y="1.67" class="f">command:</text><text x="15.03" y="1.67" class="f">r</text></symbol><symbol id="48"><text y="1.67" class="f">Remove</text><text x="7.014" y="1.67" class="f">password:</text></symbol><symbol id="49"><text y="1.67" class="f">Removed</text><text x="8.016" y="1.67" class="f">password!</text></symbol><symbol id="a"><path fill="transparent" d="M0 0h75v21H0z"/></symbol><symbol id="b"><path fill="#6f7683" d="M0 0h1.102v2.171H0z"/></symbol></defs><path class="a" d="M0 0h75v43.42H0z"/><g style="animation-duration:58.82029s;animation-iteration-count:infinite;animation-name:i;animation-timing-function:steps(1,end)"><svg width="11925"><svg><use xlink:href="#a"/><use xlink:href="#b" x="-.004"/></svg><svg x="75"><use xlink:href="#a"/><use xlink:href="#b" x="-.004" y="4.317"/><use xlink:href="#1"/></svg><svg x="150"><use xlink:href="#a"/><use xlink:href="#b" x="-.004" y="6.488"/><use xlink:href="#1"/><use xlink:href="#2" y="4.342"/></svg><svg x="225"><use xlink:href="#a"/><use xlink:href="#b" x="22.996" y="6.488"/><use xlink:href="#1"/><use xlink:href="#2" y="4.342"/><use xlink:href="#3" y="6.513"/></svg><svg x="300"><use xlink:href="#a"/><use xlink:href="#b" x="-.004" y="8.659"/><use xlink:href="#1"/><use xlink:href="#2" y="4.342"/><use xlink:href="#3" y="6.513"/></svg><svg x="375"><use xlink:href="#a"/><use xlink:href="#b" x="-.004" y="10.83"/><use xlink:href="#1"/><use xlink:href="#2" y="4.342"/><use xlink:href="#3" y="6.513"/><use xlink:href="#4" y="8.684"/></svg><svg x="450"><use xlink:href="#a"/><use xlink:href="#b" x="26.996" y="10.83"/><use xlink:href="#1"/><use xlink:href="#2" y="4.342"/><use xlink:href="#3" y="6.513"/><use xlink:href="#4" y="8.684"/><use xlink:href="#5" y="10.855"/></svg><svg x="525"><use xlink:href="#a"/><use xlink:href="#b" x="-.004" y="13.001"/><use xlink:href="#1"/><use xlink:href="#2" y="4.342"/><use xlink:href="#3" y="6.513"/><use xlink:href="#4" y="8.684"/><use xlink:href="#5" y="10.855"/></svg><svg x="600"><use xlink:href="#a"/><use xlink:href="#b" x="-.004"/></svg><svg x="675"><use xlink:href="#a"/><use xlink:href="#b" x="-.004" y="4.317"/><use xlink:href="#1"/></svg><svg x="750"><use xlink:href="#a"/><use xlink:href="#b" x="14.996" y="23.856"/><use xlink:href="#1"/><use xlink:href="#6" y="4.342"/><use xlink:href="#7" y="8.684"/><use xlink:href="#8" y="10.855"/><use xlink:href="#9" y="13.026"/><use xlink:href="#10" y="15.197"/><use xlink:href="#11" y="17.368"/><use xlink:href="#12" y="19.539"/><use xlink:href="#13" y="23.881"/></svg><svg x="825"><use xlink:href="#a"/><use xlink:href="#b" x="15.996" y="23.856"/><use xlink:href="#1"/><use xlink:href="#6" y="4.342"/><use xlink:href="#7" y="8.684"/><use xlink:href="#8" y="10.855"/><use xlink:href="#9" y="13.026"/><use xlink:href="#10" y="15.197"/><use xlink:href="#11" y="17.368"/><use xlink:href="#12" y="19.539"/><use xlink:href="#14" y="23.881"/></svg><svg x="900"><use xlink:href="#a"/><use xlink:href="#b" x="-.004" y="26.027"/><use xlink:href="#1"/><use xlink:href="#6" y="4.342"/><use xlink:href="#7" y="8.684"/><use xlink:href="#8" y="10.855"/><use xlink:href="#9" y="13.026"/><use xlink:href="#10" y="15.197"/><use xlink:href="#11" y="17.368"/><use xlink:href="#12" y="19.539"/><use xlink:href="#14" y="23.881"/></svg><svg x="975"><use xlink:href="#a"/><use xlink:href="#b" x="-.004"/></svg><svg x="1050"><use xlink:href="#a"/><use xlink:href="#b" x="7.996" y="4.317"/><use xlink:href="#15"/><use xlink:href="#16" y="4.342"/></svg><svg x="1125"><use xlink:href="#a"/><use xlink:href="#b" x="8.996" y="4.317"/><use xlink:href="#15"/><use xlink:href="#17" y="4.342"/></svg><svg x="1200"><use xlink:href="#a"/><use xlink:href="#b" x="9.996" y="4.317"/><use xlink:href="#15"/><use xlink:href="#18" y="4.342"/></svg><svg x="1275"><use xlink:href="#a"/><use xlink:href="#b" x="10.996" y="4.317"/><use xlink:href="#15"/><use xlink:href="#19" y="4.342"/></svg><svg x="1350"><use xlink:href="#a"/><use xlink:href="#b" x="11.996" y="4.317"/><use xlink:href="#15"/><use xlink:href="#20" y="4.342"/></svg><svg x="1425"><use xlink:href="#a"/><use xlink:href="#b" x="12.996" y="4.317"/><use xlink:href="#15"/><use xlink:href="#21" y="4.342"/></svg><svg x="1500"><use xlink:href="#a"/><use xlink:href="#b" x="13.996" y="4.317"/><use xlink:href="#15"/><use xlink:href="#22" y="4.342"/></svg><svg x="1575"><use xlink:href="#a"/><use xlink:href="#b" x="14.996" y="4.317"/><use xlink:href="#15"/><use xlink:href="#23" y="4.342"/></svg><svg x="1650"><use xlink:href="#a"/><use xlink:href="#b" x="15.996" y="4.317"/><use xlink:href="#15"/><use xlink:href="#24" y="4.342"/></svg><svg x="1725"><use xlink:href="#a"/><use xlink:href="#b" x="16.996" y="4.317"/><use xlink:href="#15"/><use xlink:href="#25" y="4.342"/></svg><svg x="1800"><use xlink:href="#a"/><use xlink:href="#b" x="17.996" y="4.317"/><use xlink:href="#15"/><use xlink:href="#26" y="4.342"/></svg><svg x="1875"><use xlink:href="#a"/><use xlink:href="#b" x="-.004" y="6.488"/><use xlink:href="#15"/><use xlink:href="#26" y="4.342"/></svg><svg x="1950"><use xlink:href="#a"/><use xlink:href="#b" x="5.996" y="6.488"/><use xlink:href="#15"/><use xlink:href="#26" y="4.342"/><use xlink:href="#27" y="6.513"/></svg><svg x="2025"><use xlink:href="#a"/><use xlink:href="#b" x="6.996" y="6.488"/><use xlink:href="#15"/><use xlink:href="#26" y="4.342"/><use xlink:href="#28" y="6.513"/></svg><svg x="2100"><use xlink:href="#a"/><use xlink:href="#b" x="7.996" y="6.488"/><use xlink:href="#15"/><use xlink:href="#26" y="4.342"/><use xlink:href="#29" y="6.513"/></svg><svg x="2175"><use xlink:href="#a"/><use xlink:href="#b" x="8.996" y="6.488"/><use xlink:href="#15"/><use xlink:href="#26" y="4.342"/><use xlink:href="#30" y="6.513"/></svg><svg x="2250"><use xlink:href="#a"/><use xlink:href="#b" x="9.996" y="6.488"/><use xlink:href="#15"/><use xlink:href="#26" y="4.342"/><use xlink:href="#31" y="6.513"/></svg><svg x="2325"><use xlink:href="#a"/><use xlink:href="#b" x="10.996" y="6.488"/><use xlink:href="#15"/><use xlink:href="#26" y="4.342"/><use xlink:href="#32" y="6.513"/></svg><svg x="2400"><use xlink:href="#a"/><use xlink:href="#b" x="11.996" y="6.488"/><use xlink:href="#15"/><use xlink:href="#26" y="4.342"/><use xlink:href="#33" y="6.513"/></svg><svg x="2475"><use xlink:href="#a"/><use xlink:href="#b" x="-.004" y="8.659"/><use xlink:href="#15"/><use xlink:href="#26" y="4.342"/><use xlink:href="#33" y="6.513"/></svg><svg x="2550"><use xlink:href="#a"/><use xlink:href="#b" x="9.996" y="8.659"/><use xlink:href="#15"/><use xlink:href="#26" y="4.342"/><use xlink:href="#33" y="6.513"/><use xlink:href="#34" y="8.684"/></svg><svg x="2625"><use xlink:href="#a"/><use xlink:href="#b" x="-.004" y="10.83"/><use xlink:href="#15"/><use xlink:href="#26" y="4.342"/><use xlink:href="#33" y="6.513"/><use xlink:href="#34" y="8.684"/></svg><svg x="2700"><use xlink:href="#a"/><use xlink:href="#b" x="16.996" y="10.83"/><use xlink:href="#15"/><use xlink:href="#26" y="4.342"/><use xlink:href="#33" y="6.513"/><use xlink:href="#34" y="8.684"/><use xlink:href="#35" y="10.855"/></svg><svg x="2775"><use xlink:href="#a"/><use xlink:href="#b" x="-.004" y="13.001"/><use xlink:href="#15"/><use xlink:href="#26" y="4.342"/><use xlink:href="#33" y="6.513"/><use xlink:href="#34" y="8.684"/><use xlink:href="#35" y="10.855"/></svg><svg x="2850"><use xlink:href="#a"/><use xlink:href="#b" x="26.996" y="15.172"/><use xlink:href="#15"/><use xlink:href="#26" y="4.342"/><use xlink:href="#33" y="6.513"/><use xlink:href="#34" y="8.684"/><use xlink:href="#35" y="10.855"/><use xlink:href="#36" y="13.026"/><use xlink:href="#5" y="15.197"/></svg><svg x="2925"><use xlink:href="#a"/><use xlink:href="#b" x="-.004" y="17.343"/><use xlink:href="#15"/><use xlink:href="#26" y="4.342"/><use xlink:href="#33" y="6.513"/><use xlink:href="#34" y="8.684"/><use xlink:href="#35" y="10.855"/><use xlink:href="#36" y="13.026"/><use xlink:href="#5" y="15.197"/></svg><svg x="3000"><use xlink:href="#a"/><use xlink:href="#b" x="-.004"/></svg><svg x="3075"><use xlink:href="#a"/><use xlink:href="#b" x="-.004" y="4.317"/><use xlink:href="#1"/></svg><svg x="3150"><use xlink:href="#a"/><use xlink:href="#b" x="14.996" y="23.856"/><use xlink:href="#1"/><use xlink:href="#37" y="4.342"/><use xlink:href="#7" y="8.684"/><use xlink:href="#8" y="10.855"/><use xlink:href="#9" y="13.026"/><use xlink:href="#10" y="15.197"/><use xlink:href="#11" y="17.368"/><use xlink:href="#12" y="19.539"/><use xlink:href="#13" y="23.881"/></svg><svg x="3225"><use xlink:href="#a"/><use xlink:href="#b" x="15.996" y="23.856"/><use xlink:href="#1"/><use xlink:href="#37" y="4.342"/><use xlink:href="#7" y="8.684"/><use xlink:href="#8" y="10.855"/><use xlink:href="#9" y="13.026"/><use xlink:href="#10" y="15.197"/><use xlink:href="#11" y="17.368"/><use xlink:href="#12" y="19.539"/><use xlink:href="#38" y="23.881"/></svg><svg x="3300"><use xlink:href="#a"/><use xlink:href="#b" x="-.004" y="26.027"/><use xlink:href="#1"/><use xlink:href="#37" y="4.342"/><use xlink:href="#7" y="8.684"/><use xlink:href="#8" y="10.855"/><use xlink:href="#9" y="13.026"/><use xlink:href="#10" y="15.197"/><use xlink:href="#11" y="17.368"/><use xlink:href="#12" y="19.539"/><use xlink:href="#38" y="23.881"/></svg><svg x="3375"><use xlink:href="#a"/><use xlink:href="#b" x="-.004"/></svg><svg x="3450"><use xlink:href="#a"/><use xlink:href="#b" x="7.996" y="4.317"/><use xlink:href="#39"/><use xlink:href="#16" y="4.342"/></svg><svg x="3525"><use xlink:href="#a"/><use xlink:href="#b" x="8.996" y="4.317"/><use xlink:href="#39"/><use xlink:href="#17" y="4.342"/></svg><svg x="3600"><use xlink:href="#a"/><use xlink:href="#b" x="9.996" y="4.317"/><use xlink:href="#39"/><use xlink:href="#18" y="4.342"/></svg><svg x="3675"><use xlink:href="#a"/><use xlink:href="#b" x="10.996" y="4.317"/><use xlink:href="#39"/><use xlink:href="#19" y="4.342"/></svg><svg x="3750"><use xlink:href="#a"/><use xlink:href="#b" x="11.996" y="4.317"/><use xlink:href="#39"/><use xlink:href="#20" y="4.342"/></svg><svg x="3825"><use xlink:href="#a"/><use xlink:href="#b" x="12.996" y="4.317"/><use xlink:href="#39"/><use xlink:href="#21" y="4.342"/></svg><svg x="3900"><use xlink:href="#a"/><use xlink:href="#b" x="13.996" y="4.317"/><use xlink:href="#39"/><use xlink:href="#22" y="4.342"/></svg><svg x="3975"><use xlink:href="#a"/><use xlink:href="#b" x="14.996" y="4.317"/><use xlink:href="#39"/><use xlink:href="#23" y="4.342"/></svg><svg x="4050"><use xlink:href="#a"/><use xlink:href="#b" x="15.996" y="4.317"/><use xlink:href="#39"/><use xlink:href="#24" y="4.342"/></svg><svg x="4125"><use xlink:href="#a"/><use xlink:href="#b" x="16.996" y="4.317"/><use xlink:href="#39"/><use xlink:href="#25" y="4.342"/></svg><svg x="4200"><use xlink:href="#a"/><use xlink:href="#b" x="17.996" y="4.317"/><use xlink:href="#39"/><use xlink:href="#26" y="4.342"/></svg><svg x="4275"><use xlink:href="#a"/><use xlink:href="#b" x="-.004" y="6.488"/><use xlink:href="#39"/><use xlink:href="#26" y="4.342"/></svg><svg x="4350"><use xlink:href="#a"/><use xlink:href="#b" x="5.996" y="6.488"/><use xlink:href="#39"/><use xlink:href="#26" y="4.342"/><use xlink:href="#27" y="6.513"/></svg><svg x="4425"><use xlink:href="#a"/><use xlink:href="#b" x="6.996" y="6.488"/><use xlink:href="#39"/><use xlink:href="#26" y="4.342"/><use xlink:href="#28" y="6.513"/></svg><svg x="4500"><use xlink:href="#a"/><use xlink:href="#b" x="7.996" y="6.488"/><use xlink:href="#39"/><use xlink:href="#26" y="4.342"/><use xlink:href="#29" y="6.513"/></svg><svg x="4575"><use xlink:href="#a"/><use xlink:href="#b" x="8.996" y="6.488"/><use xlink:href="#39"/><use xlink:href="#26" y="4.342"/><use xlink:href="#30" y="6.513"/></svg><svg x="4650"><use xlink:href="#a"/><use xlink:href="#b" x="9.996" y="6.488"/><use xlink:href="#39"/><use xlink:href="#26" y="4.342"/><use xlink:href="#31" y="6.513"/></svg><svg x="4725"><use xlink:href="#a"/><use xlink:href="#b" x="10.996" y="6.488"/><use xlink:href="#39"/><use xlink:href="#26" y="4.342"/><use xlink:href="#32" y="6.513"/></svg><svg x="4800"><use xlink:href="#a"/><use xlink:href="#b" x="11.996" y="6.488"/><use xlink:href="#39"/><use xlink:href="#26" y="4.342"/><use xlink:href="#33" y="6.513"/></svg><svg x="4875"><use xlink:href="#a"/><use xlink:href="#b" x="-.004" y="8.659"/><use xlink:href="#39"/><use xlink:href="#26" y="4.342"/><use xlink:href="#33" y="6.513"/></svg><svg x="4950"><use xlink:href="#a"/><use xlink:href="#b" x="26.996" y="10.83"/><use xlink:href="#39"/><use xlink:href="#26" y="4.342"/><use xlink:href="#33" y="6.513"/><use xlink:href="#40" y="8.684"/><use xlink:href="#5" y="10.855"/></svg><svg x="5025"><use xlink:href="#a"/><use xlink:href="#b" x="-.004" y="13.001"/><use xlink:href="#39"/><use xlink:href="#26" y="4.342"/><use xlink:href="#33" y="6.513"/><use xlink:href="#40" y="8.684"/><use xlink:href="#5" y="10.855"/></svg><svg x="5100"><use xlink:href="#a"/><use xlink:href="#b" x="-.004"/></svg><svg x="5175"><use xlink:href="#a"/><use xlink:href="#b" x="21.996" y="17.343"/><use xlink:href="#1"/><use xlink:href="#37" y="4.342"/><use xlink:href="#7" y="8.684"/><use xlink:href="#8" y="10.855"/><use xlink:href="#9" y="13.026"/><use xlink:href="#10" y="15.197"/><use xlink:href="#11" y="17.368"/></svg><svg x="5250"><use xlink:href="#a"/><use xlink:href="#b" x="14.996" y="23.856"/><use xlink:href="#1"/><use xlink:href="#37" y="4.342"/><use xlink:href="#7" y="8.684"/><use xlink:href="#8" y="10.855"/><use xlink:href="#9" y="13.026"/><use xlink:href="#10" y="15.197"/><use xlink:href="#11" y="17.368"/><use xlink:href="#12" y="19.539"/><use xlink:href="#13" y="23.881"/></svg><svg x="5325"><use xlink:href="#a"/><use xlink:href="#b" x="15.996" y="23.856"/><use xlink:href="#1"/><use xlink:href="#37" y="4.342"/><use xlink:href="#7" y="8.684"/><use xlink:href="#8" y="10.855"/><use xlink:href="#9" y="13.026"/><use xlink:href="#10" y="15.197"/><use xlink:href="#11" y="17.368"/><use xlink:href="#12" y="19.539"/><use xlink:href="#41" y="23.881"/></svg><svg x="5400"><use xlink:href="#a"/><use xlink:href="#b" x="-.004" y="26.027"/><use xlink:href="#1"/><use xlink:href="#37" y="4.342"/><use xlink:href="#7" y="8.684"/><use xlink:href="#8" y="10.855"/><use xlink:href="#9" y="13.026"/><use xlink:href="#10" y="15.197"/><use xlink:href="#11" y="17.368"/><use xlink:href="#12" y="19.539"/><use xlink:href="#41" y="23.881"/></svg><svg x="5475"><use xlink:href="#a"/><use xlink:href="#b" x="-.004"/></svg><svg x="5550"><use xlink:href="#a"/><use xlink:href="#b" x="7.996" y="4.317"/><use xlink:href="#42"/><use xlink:href="#16" y="4.342"/></svg><svg x="5625"><use xlink:href="#a"/><use xlink:href="#b" x="8.996" y="4.317"/><use xlink:href="#42"/><use xlink:href="#17" y="4.342"/></svg><svg x="5700"><use xlink:href="#a"/><use xlink:href="#b" x="9.996" y="4.317"/><use xlink:href="#42"/><use xlink:href="#18" y="4.342"/></svg><svg x="5775"><use xlink:href="#a"/><use xlink:href="#b" x="10.996" y="4.317"/><use xlink:href="#42"/><use xlink:href="#19" y="4.342"/></svg><svg x="5850"><use xlink:href="#a"/><use xlink:href="#b" x="11.996" y="4.317"/><use xlink:href="#42"/><use xlink:href="#20" y="4.342"/></svg><svg x="5925"><use xlink:href="#a"/><use xlink:href="#b" x="12.996" y="4.317"/><use xlink:href="#42"/><use xlink:href="#21" y="4.342"/></svg><svg x="6000"><use xlink:href="#a"/><use xlink:href="#b" x="13.996" y="4.317"/><use xlink:href="#42"/><use xlink:href="#22" y="4.342"/></svg><svg x="6075"><use xlink:href="#a"/><use xlink:href="#b" x="14.996" y="4.317"/><use xlink:href="#42"/><use xlink:href="#23" y="4.342"/></svg><svg x="6150"><use xlink:href="#a"/><use xlink:href="#b" x="15.996" y="4.317"/><use xlink:href="#42"/><use xlink:href="#24" y="4.342"/></svg><svg x="6225"><use xlink:href="#a"/><use xlink:href="#b" x="16.996" y="4.317"/><use xlink:href="#42"/><use xlink:href="#25" y="4.342"/></svg><svg x="6300"><use xlink:href="#a"/><use xlink:href="#b" x="17.996" y="4.317"/><use xlink:href="#42"/><use xlink:href="#26" y="4.342"/></svg><svg x="6375"><use xlink:href="#a"/><use xlink:href="#b" x="-.004" y="6.488"/><use xlink:href="#42"/><use xlink:href="#26" y="4.342"/></svg><svg x="6450"><use xlink:href="#a"/><use xlink:href="#b" x="5.996" y="6.488"/><use xlink:href="#42"/><use xlink:href="#26" y="4.342"/><use xlink:href="#27" y="6.513"/></svg><svg x="6525"><use xlink:href="#a"/><use xlink:href="#b" x="6.996" y="6.488"/><use xlink:href="#42"/><use xlink:href="#26" y="4.342"/><use xlink:href="#28" y="6.513"/></svg><svg x="6600"><use xlink:href="#a"/><use xlink:href="#b" x="7.996" y="6.488"/><use xlink:href="#42"/><use xlink:href="#26" y="4.342"/><use xlink:href="#29" y="6.513"/></svg><svg x="6675"><use xlink:href="#a"/><use xlink:href="#b" x="8.996" y="6.488"/><use xlink:href="#42"/><use xlink:href="#26" y="4.342"/><use xlink:href="#30" y="6.513"/></svg><svg x="6750"><use xlink:href="#a"/><use xlink:href="#b" x="9.996" y="6.488"/><use xlink:href="#42"/><use xlink:href="#26" y="4.342"/><use xlink:href="#31" y="6.513"/></svg><svg x="6825"><use xlink:href="#a"/><use xlink:href="#b" x="10.996" y="6.488"/><use xlink:href="#42"/><use xlink:href="#26" y="4.342"/><use xlink:href="#32" y="6.513"/></svg><svg x="6900"><use xlink:href="#a"/><use xlink:href="#b" x="11.996" y="6.488"/><use xlink:href="#42"/><use xlink:href="#26" y="4.342"/><use xlink:href="#33" y="6.513"/></svg><svg x="6975"><use xlink:href="#a"/><use xlink:href="#b" x="-.004" y="8.659"/><use xlink:href="#42"/><use xlink:href="#26" y="4.342"/><use xlink:href="#33" y="6.513"/></svg><svg x="7050"><use xlink:href="#a"/><use xlink:href="#b" x="13.996" y="8.659"/><use xlink:href="#42"/><use xlink:href="#26" y="4.342"/><use xlink:href="#33" y="6.513"/><use xlink:href="#43" y="8.684"/></svg><svg x="7125"><use xlink:href="#a"/><use xlink:href="#b" x="-.004" y="10.83"/><use xlink:href="#42"/><use xlink:href="#26" y="4.342"/><use xlink:href="#33" y="6.513"/><use xlink:href="#43" y="8.684"/></svg><svg x="7200"><use xlink:href="#a"/><use xlink:href="#b" x="20.996" y="10.83"/><use xlink:href="#42"/><use xlink:href="#26" y="4.342"/><use xlink:href="#33" y="6.513"/><use xlink:href="#43" y="8.684"/><use xlink:href="#44" y="10.855"/></svg><svg x="7275"><use xlink:href="#a"/><use xlink:href="#b" x="-.004" y="13.001"/><use xlink:href="#42"/><use xlink:href="#26" y="4.342"/><use xlink:href="#33" y="6.513"/><use xlink:href="#43" y="8.684"/><use xlink:href="#44" y="10.855"/></svg><svg x="7350"><use xlink:href="#a"/><use xlink:href="#b" x="26.996" y="15.172"/><use xlink:href="#42"/><use xlink:href="#26" y="4.342"/><use xlink:href="#33" y="6.513"/><use xlink:href="#43" y="8.684"/><use xlink:href="#44" y="10.855"/><use xlink:href="#45" y="13.026"/><use xlink:href="#5" y="15.197"/></svg><svg x="7425"><use xlink:href="#a"/><use xlink:href="#b" x="-.004" y="17.343"/><use xlink:href="#42"/><use xlink:href="#26" y="4.342"/><use xlink:href="#33" y="6.513"/><use xlink:href="#43" y="8.684"/><use xlink:href="#44" y="10.855"/><use xlink:href="#45" y="13.026"/><use xlink:href="#5" y="15.197"/></svg><svg x="7500"><use xlink:href="#a"/><use xlink:href="#b" x="-.004"/></svg><svg x="7575"><use xlink:href="#a"/><use xlink:href="#b" x="-.004" y="4.317"/><use xlink:href="#1"/></svg><svg x="7650"><use xlink:href="#a"/><use xlink:href="#b" x="14.996" y="23.856"/><use xlink:href="#1"/><use xlink:href="#37" y="4.342"/><use xlink:href="#7" y="8.684"/><use xlink:href="#8" y="10.855"/><use xlink:href="#9" y="13.026"/><use xlink:href="#10" y="15.197"/><use xlink:href="#11" y="17.368"/><use xlink:href="#12" y="19.539"/><use xlink:href="#13" y="23.881"/></svg><svg x="7725"><use xlink:href="#a"/><use xlink:href="#b" x="15.996" y="23.856"/><use xlink:href="#1"/><use xlink:href="#37" y="4.342"/><use xlink:href="#7" y="8.684"/><use xlink:href="#8" y="10.855"/><use xlink:href="#9" y="13.026"/><use xlink:href="#10" y="15.197"/><use xlink:href="#11" y="17.368"/><use xlink:href="#12" y="19.539"/><use xlink:href="#38" y="23.881"/></svg><svg x="7800"><use xlink:href="#a"/><use xlink:href="#b" x="-.004" y="26.027"/><use xlink:href="#1"/><use xlink:href="#37" y="4.342"/><use xlink:href="#7" y="8.684"/><use xlink:href="#8" y="10.855"/><use xlink:href="#9" y="13.026"/><use xlink:href="#10" y="15.197"/><use xlink:href="#11" y="17.368"/><use xlink:href="#12" y="19.539"/><use xlink:href="#38" y="23.881"/></svg><svg x="7875"><use xlink:href="#a"/><use xlink:href="#b" x="-.004"/></svg><svg x="7950"><use xlink:href="#a"/><use xlink:href="#b" x="7.996" y="4.317"/><use xlink:href="#39"/><use xlink:href="#16" y="4.342"/></svg><svg x="8025"><use xlink:href="#a"/><use xlink:href="#b" x="8.996" y="4.317"/><use xlink:href="#39"/><use xlink:href="#17" y="4.342"/></svg><svg x="8100"><use xlink:href="#a"/><use xlink:href="#b" x="9.996" y="4.317"/><use xlink:href="#39"/><use xlink:href="#18" y="4.342"/></svg><svg x="8175"><use xlink:href="#a"/><use xlink:href="#b" x="10.996" y="4.317"/><use xlink:href="#39"/><use xlink:href="#19" y="4.342"/></svg><svg x="8250"><use xlink:href="#a"/><use xlink:href="#b" x="11.996" y="4.317"/><use xlink:href="#39"/><use xlink:href="#20" y="4.342"/></svg><svg x="8325"><use xlink:href="#a"/><use xlink:href="#b" x="12.996" y="4.317"/><use xlink:href="#39"/><use xlink:href="#21" y="4.342"/></svg><svg x="8400"><use xlink:href="#a"/><use xlink:href="#b" x="13.996" y="4.317"/><use xlink:href="#39"/><use xlink:href="#22" y="4.342"/></svg><svg x="8475"><use xlink:href="#a"/><use xlink:href="#b" x="14.996" y="4.317"/><use xlink:href="#39"/><use xlink:href="#23" y="4.342"/></svg><svg x="8550"><use xlink:href="#a"/><use xlink:href="#b" x="15.996" y="4.317"/><use xlink:href="#39"/><use xlink:href="#24" y="4.342"/></svg><svg x="8625"><use xlink:href="#a"/><use xlink:href="#b" x="16.996" y="4.317"/><use xlink:href="#39"/><use xlink:href="#25" y="4.342"/></svg><svg x="8700"><use xlink:href="#a"/><use xlink:href="#b" x="17.996" y="4.317"/><use xlink:href="#39"/><use xlink:href="#26" y="4.342"/></svg><svg x="8775"><use xlink:href="#a"/><use xlink:href="#b" x="-.004" y="6.488"/><use xlink:href="#39"/><use xlink:href="#26" y="4.342"/></svg><svg x="8850"><use xlink:href="#a"/><use xlink:href="#b" x="5.996" y="6.488"/><use xlink:href="#39"/><use xlink:href="#26" y="4.342"/><use xlink:href="#27" y="6.513"/></svg><svg x="8925"><use xlink:href="#a"/><use xlink:href="#b" x="6.996" y="6.488"/><use xlink:href="#39"/><use xlink:href="#26" y="4.342"/><use xlink:href="#28" y="6.513"/></svg><svg x="9000"><use xlink:href="#a"/><use xlink:href="#b" x="7.996" y="6.488"/><use xlink:href="#39"/><use xlink:href="#26" y="4.342"/><use xlink:href="#29" y="6.513"/></svg><svg x="9075"><use xlink:href="#a"/><use xlink:href="#b" x="8.996" y="6.488"/><use xlink:href="#39"/><use xlink:href="#26" y="4.342"/><use xlink:href="#30" y="6.513"/></svg><svg x="9150"><use xlink:href="#a"/><use xlink:href="#b" x="9.996" y="6.488"/><use xlink:href="#39"/><use xlink:href="#26" y="4.342"/><use xlink:href="#31" y="6.513"/></svg><svg x="9225"><use xlink:href="#a"/><use xlink:href="#b" x="10.996" y="6.488"/><use xlink:href="#39"/><use xlink:href="#26" y="4.342"/><use xlink:href="#32" y="6.513"/></svg><svg x="9300"><use xlink:href="#a"/><use xlink:href="#b" x="11.996" y="6.488"/><use xlink:href="#39"/><use xlink:href="#26" y="4.342"/><use xlink:href="#33" y="6.513"/></svg><svg x="9375"><use xlink:href="#a"/><use xlink:href="#b" x="-.004" y="8.659"/><use xlink:href="#39"/><use xlink:href="#26" y="4.342"/><use xlink:href="#33" y="6.513"/></svg><svg x="9450"><use xlink:href="#a"/><use xlink:href="#b" x="26.996" y="10.83"/><use xlink:href="#39"/><use xlink:href="#26" y="4.342"/><use xlink:href="#33" y="6.513"/><use xlink:href="#46" y="8.684"/><use xlink:href="#5" y="10.855"/></svg><svg x="9525"><use xlink:href="#a"/><use xlink:href="#b" x="-.004" y="13.001"/><use xlink:href="#39"/><use xlink:href="#26" y="4.342"/><use xlink:href="#33" y="6.513"/><use xlink:href="#46" y="8.684"/><use xlink:href="#5" y="10.855"/></svg><svg x="9600"><use xlink:href="#a"/><use xlink:href="#b" x="-.004"/></svg><svg x="9675"><use xlink:href="#a"/><use xlink:href="#b" x="-.004" y="6.488"/><use xlink:href="#1"/><use xlink:href="#37" y="4.342"/></svg><svg x="9750"><use xlink:href="#a"/><use xlink:href="#b" x="14.996" y="23.856"/><use xlink:href="#1"/><use xlink:href="#37" y="4.342"/><use xlink:href="#7" y="8.684"/><use xlink:href="#8" y="10.855"/><use xlink:href="#9" y="13.026"/><use xlink:href="#10" y="15.197"/><use xlink:href="#11" y="17.368"/><use xlink:href="#12" y="19.539"/><use xlink:href="#13" y="23.881"/></svg><svg x="9825"><use xlink:href="#a"/><use xlink:href="#b" x="15.996" y="23.856"/><use xlink:href="#1"/><use xlink:href="#37" y="4.342"/><use xlink:href="#7" y="8.684"/><use xlink:href="#8" y="10.855"/><use xlink:href="#9" y="13.026"/><use xlink:href="#10" y="15.197"/><use xlink:href="#11" y="17.368"/><use xlink:href="#12" y="19.539"/><use xlink:href="#47" y="23.881"/></svg><svg x="9900"><use xlink:href="#a"/><use xlink:href="#b" x="-.004" y="26.027"/><use xlink:href="#1"/><use xlink:href="#37" y="4.342"/><use xlink:href="#7" y="8.684"/><use xlink:href="#8" y="10.855"/><use xlink:href="#9" y="13.026"/><use xlink:href="#10" y="15.197"/><use xlink:href="#11" y="17.368"/><use xlink:href="#12" y="19.539"/><use xlink:href="#47" y="23.881"/></svg><svg x="9975"><use xlink:href="#a"/><use xlink:href="#b" x="-.004"/></svg><svg x="10050"><use xlink:href="#a"/><use xlink:href="#b" x="7.996" y="4.317"/><use xlink:href="#48"/><use xlink:href="#16" y="4.342"/></svg><svg x="10125"><use xlink:href="#a"/><use xlink:href="#b" x="8.996" y="4.317"/><use xlink:href="#48"/><use xlink:href="#17" y="4.342"/></svg><svg x="10200"><use xlink:href="#a"/><use xlink:href="#b" x="9.996" y="4.317"/><use xlink:href="#48"/><use xlink:href="#18" y="4.342"/></svg><svg x="10275"><use xlink:href="#a"/><use xlink:href="#b" x="10.996" y="4.317"/><use xlink:href="#48"/><use xlink:href="#19" y="4.342"/></svg><svg x="10350"><use xlink:href="#a"/><use xlink:href="#b" x="11.996" y="4.317"/><use xlink:href="#48"/><use xlink:href="#20" y="4.342"/></svg><svg x="10425"><use xlink:href="#a"/><use xlink:href="#b" x="12.996" y="4.317"/><use xlink:href="#48"/><use xlink:href="#21" y="4.342"/></svg><svg x="10500"><use xlink:href="#a"/><use xlink:href="#b" x="13.996" y="4.317"/><use xlink:href="#48"/><use xlink:href="#22" y="4.342"/></svg><svg x="10575"><use xlink:href="#a"/><use xlink:href="#b" x="14.996" y="4.317"/><use xlink:href="#48"/><use xlink:href="#23" y="4.342"/></svg><svg x="10650"><use xlink:href="#a"/><use xlink:href="#b" x="15.996" y="4.317"/><use xlink:href="#48"/><use xlink:href="#24" y="4.342"/></svg><svg x="10725"><use xlink:href="#a"/><use xlink:href="#b" x="16.996" y="4.317"/><use xlink:href="#48"/><use xlink:href="#25" y="4.342"/></svg><svg x="10800"><use xlink:href="#a"/><use xlink:href="#b" x="17.996" y="4.317"/><use xlink:href="#48"/><use xlink:href="#26" y="4.342"/></svg><svg x="10875"><use xlink:href="#a"/><use xlink:href="#b" x="-.004" y="6.488"/><use xlink:href="#48"/><use xlink:href="#26" y="4.342"/></svg><svg x="10950"><use xlink:href="#a"/><use xlink:href="#b" x="5.996" y="6.488"/><use xlink:href="#48"/><use xlink:href="#26" y="4.342"/><use xlink:href="#27" y="6.513"/></svg><svg x="11025"><use xlink:href="#a"/><use xlink:href="#b" x="6.996" y="6.488"/><use xlink:href="#48"/><use xlink:href="#26" y="4.342"/><use xlink:href="#28" y="6.513"/></svg><svg x="11100"><use xlink:href="#a"/><use xlink:href="#b" x="7.996" y="6.488"/><use xlink:href="#48"/><use xlink:href="#26" y="4.342"/><use xlink:href="#29" y="6.513"/></svg><svg x="11175"><use xlink:href="#a"/><use xlink:href="#b" x="8.996" y="6.488"/><use xlink:href="#48"/><use xlink:href="#26" y="4.342"/><use xlink:href="#30" y="6.513"/></svg><svg x="11250"><use xlink:href="#a"/><use xlink:href="#b" x="9.996" y="6.488"/><use xlink:href="#48"/><use xlink:href="#26" y="4.342"/><use xlink:href="#31" y="6.513"/></svg><svg x="11325"><use xlink:href="#a"/><use xlink:href="#b" x="10.996" y="6.488"/><use xlink:href="#48"/><use xlink:href="#26" y="4.342"/><use xlink:href="#32" y="6.513"/></svg><svg x="11400"><use xlink:href="#a"/><use xlink:href="#b" x="11.996" y="6.488"/><use xlink:href="#48"/><use xlink:href="#26" y="4.342"/><use xlink:href="#33" y="6.513"/></svg><svg x="11475"><use xlink:href="#a"/><use xlink:href="#b" x="-.004" y="8.659"/><use xlink:href="#48"/><use xlink:href="#26" y="4.342"/><use xlink:href="#33" y="6.513"/></svg><svg x="11550"><use xlink:href="#a"/><use xlink:href="#b" x="26.996" y="10.83"/><use xlink:href="#48"/><use xlink:href="#26" y="4.342"/><use xlink:href="#33" y="6.513"/><use xlink:href="#49" y="8.684"/><use xlink:href="#5" y="10.855"/></svg><svg x="11625"><use xlink:href="#a"/><use xlink:href="#b" x="-.004" y="13.001"/><use xlink:href="#48"/><use xlink:href="#26" y="4.342"/><use xlink:href="#33" y="6.513"/><use xlink:href="#49" y="8.684"/><use xlink:href="#5" y="10.855"/></svg><svg x="11700"><use xlink:href="#a"/><use xlink:href="#b" x="-.004"/></svg><svg x="11775"><use xlink:href="#a"/><use xlink:href="#b" x="-.004" y="4.317"/><use xlink:href="#1"/></svg><svg x="11850"><use xlink:href="#a"/><use xlink:href="#b" x="14.996" y="23.856"/><use xlink:href="#1"/><use xlink:href="#6" y="4.342"/><use xlink:href="#7" y="8.684"/><use xlink:href="#8" y="10.855"/><use xlink:href="#9" y="13.026"/><use xlink:href="#10" y="15.197"/><use xlink:href="#11" y="17.368"/><use xlink:href="#12" y="19.539"/><use xlink:href="#13" y="23.881"/></svg></svg></g></g></svg></svg>